<?xml version="1.0" encoding="UTF-8"?>
<svg xmlns="http://www.w3.org/2000/svg" height="1288" width="1288" class="pyqrcode"><path transform="scale(8)" stroke="#000" class="pyqrline" d="M4 4.5h7m1 0h1m3 0h2m3 0h3m2 0h2m1 0h1m1 0h1m1 0h2m1 0h1m4 0h1m2 0h6m1 0h1m1 0h2m1 0h2m1 0h1m1 0h1m8 0h1m2 0h2m2 0h2m2 0h2m2 0h2m1 0h2m3 0h4m1 0h3m3 0h6m6 0h1m1 0h13m1 0h2m5 0h3m2 0h2m1 0h1m2 0h7m-153 1h1m5 0h1m1 0h2m1 0h1m2 0h3m2 0h3m6 0h3m1 0h1m2 0h1m1 0h2m1 0h6m2 0h1m3 0h1m3 0h2m1 0h2m1 0h4m5 0h1m2 0h1m1 0h1m4 0h3m1 0h1m3 0h1m1 0h3m1 0h7m5 0h3m1 0h1m1 0h1m4 0h1m1 0h1m5 0h2m1 0h4m6 0h1m1 0h4m1 0h1m5 0h1m-153 1h1m1 0h3m1 0h1m1 0h1m1 0h1m5 0h1m2 0h1m3 0h5m1 0h2m1 0h1m1 0h1m1 0h1m2 0h3m3 0h1m2 0h1m4 0h2m3 0h3m1 0h2m5 0h2m1 0h1m3 0h1m1 0h3m4 0h1m1 0h5m1 0h4m3 0h1m1 0h1m2 0h1m1 0h1m1 0h1m1 0h1m1 0h2m2 0h1m3 0h3m1 0h2m6 0h1m1 0h4m4 0h1m2 0h1m1 0h3m1 0h1m-153 1h1m1 0h3m1 0h1m3 0h1m1 0h3m2 0h4m1 0h3m6 0h3m2 0h1m1 0h1m1 0h2m5 0h1m2 0h4m1 0h1m1 0h1m2 0h2m1 0h1m1 0h1m5 0h1m1 0h3m11 0h4m2 0h7m1 0h1m2 0h1m1 0h3m1 0h2m3 0h1m7 0h1m6 0h1m3 0h3m2 0h1m1 0h1m2 0h1m1 0h1m1 0h3m1 0h1m-153 1h1m1 0h3m1 0h1m2 0h1m2 0h1m1 0h1m2 0h1m2 0h1m1 0h1m5 0h1m1 0h1m1 0h5m1 0h1m2 0h3m1 0h1m4 0h1m1 0h13m3 0h1m2 0h1m2 0h1m2 0h2m2 0h1m1 0h1m2 0h8m4 0h1m1 0h1m1 0h1m1 0h2m1 0h1m3 0h2m2 0h7m1 0h2m1 0h4m4 0h3m6 0h1m2 0h1m1 0h3m1 0h1m-153 1h1m5 0h1m1 0h1m1 0h2m2 0h1m1 0h1m3 0h1m2 0h1m1 0h1m2 0h1m2 0h2m3 0h1m5 0h1m3 0h3m3 0h3m5 0h1m3 0h2m4 0h5m1 0h2m1 0h1m2 0h1m2 0h4m3 0h3m1 0h2m1 0h2m2 0h1m1 0h1m2 0h1m5 0h3m3 0h1m1 0h1m3 0h2m1 0h4m1 0h1m3 0h4m2 0h1m1 0h1m5 0h1m-153 1h7m1 0h1m1 0h1m1 0h1m1 0h1m1 0h1m1 0h1m1 0h1m1 0h1m1 0h1m1 0h1m1 0h1m1 0h1m1 0h1m1 0h1m1 0h1m1 0h1m1 0h1m1 0h1m1 0h1m1 0h1m1 0h1m1 0h1m1 0h1m1 0h1m1 0h1m1 0h1m1 0h1m1 0h1m1 0h1m1 0h1m1 0h1m1 0h1m1 0h1m1 0h1m1 0h1m1 0h1m1 0h1m1 0h1m1 0h1m1 0h1m1 0h1m1 0h1m1 0h1m1 0h1m1 0h1m1 0h1m1 0h1m1 0h1m1 0h1m1 0h1m1 0h1m1 0h1m1 0h1m1 0h1m1 0h1m1 0h1m1 0h1m1 0h1m1 0h1m1 0h1m1 0h1m1 0h1m1 0h1m1 0h1m1 0h1m1 0h1m1 0h1m1 0h1m1 0h1m1 0h7m-145 1h1m4 0h2m1 0h1m5 0h1m1 0h1m1 0h1m4 0h2m3 0h3m1 0h1m3 0h1m3 0h5m1 0h2m1 0h2m1 0h1m3 0h2m1 0h2m2 0h1m3 0h1m4 0h1m3 0h1m1 0h1m1 0h1m3 0h2m4 0h1m2 0h3m1 0h1m2 0h2m1 0h2m1 0h1m1 0h1m3 0h4m1 0h2m5 0h2m1 0h1m1 0h1m2 0h1m1 0h2m-142 1h3m1 0h1m1 0h1m2 0h1m2 0h1m2 0h3m4 0h5m2 0h7m1 0h1m4 0h1m1 0h2m1 0h2m3 0h1m2 0h2m1 0h5m1 0h3m3 0h3m1 0h3m1 0h1m2 0h1m4 0h10m1 0h1m3 0h1m2 0h1m1 0h1m1 0h2m1 0h1m2 0h5m2 0h1m5 0h2m3 0h2m2 0h1m2 0h1m2 0h4m2 0h3m-151 1h1m1 0h1m2 0h1m2 0h1m7 0h2m2 0h5m1 0h2m2 0h1m1 0h1m4 0h1m1 0h2m2 0h3m2 0h1m3 0h1m1 0h1m3 0h2m1 0h1m5 0h1m1 0h3m3 0h3m5 0h1m3 0h1m2 0h2m1 0h2m1 0h2m3 0h3m1 0h1m4 0h3m1 0h9m1 0h1m1 0h3m2 0h3m2 0h1m1 0h2m2 0h1m1 0h1m3 0h1m1 0h1m-151 1h1m1 0h6m1 0h1m1 0h1m1 0h1m1 0h1m4 0h2m1 0h1m3 0h2m1 0h1m2 0h1m2 0h4m5 0h8m1 0h3m1 0h1m1 0h1m5 0h1m1 0h4m1 0h3m1 0h1m1 0h3m2 0h1m3 0h3m1 0h2m1 0h1m1 0h1m2 0h1m2 0h1m2 0h1m1 0h2m1 0h2m2 0h1m2 0h1m1 0h1m3 0h2m1 0h4m3 0h1m1 0h2m1 0h2m2 0h1m1 0h5m-151 1h2m1 0h1m2 0h2m9 0h1m1 0h1m1 0h1m1 0h2m2 0h1m2 0h3m1 0h1m1 0h1m2 0h3m2 0h1m1 0h2m1 0h4m3 0h2m1 0h1m3 0h3m1 0h1m1 0h3m2 0h1m5 0h2m1 0h1m1 0h4m1 0h4m1 0h3m3 0h1m2 0h1m2 0h1m5 0h8m1 0h4m1 0h1m3 0h4m1 0h2m1 0h1m2 0h2m1 0h1m3 0h1m1 0h1m-153 1h2m3 0h4m2 0h1m2 0h5m3 0h1m1 0h3m1 0h1m2 0h1m1 0h1m1 0h1m1 0h7m1 0h1m2 0h8m1 0h1m4 0h2m1 0h2m1 0h1m1 0h1m1 0h2m6 0h1m2 0h1m1 0h1m1 0h2m2 0h1m1 0h1m2 0h2m2 0h2m1 0h1m2 0h1m1 0h6m8 0h3m2 0h1m1 0h4m3 0h1m4 0h2m4 0h3m1 0h1m-151 1h1m6 0h1m1 0h1m1 0h2m1 0h2m2 0h3m4 0h2m1 0h3m3 0h7m1 0h1m1 0h2m3 0h6m1 0h3m3 0h1m1 0h1m3 0h3m2 0h4m1 0h1m2 0h1m1 0h2m2 0h1m2 0h1m1 0h1m1 0h3m4 0h4m1 0h1m3 0h4m2 0h7m2 0h1m1 0h3m2 0h1m1 0h1m2 0h1m1 0h2m1 0h1m1 0h2m3 0h1m1 0h1m-152 1h1m1 0h1m1 0h2m2 0h1m2 0h1m1 0h2m3 0h1m2 0h1m3 0h2m1 0h1m3 0h2m3 0h1m1 0h1m1 0h3m2 0h4m2 0h2m1 0h1m1 0h1m1 0h1m1 0h1m1 0h3m1 0h2m1 0h1m1 0h1m4 0h2m3 0h4m2 0h1m2 0h3m3 0h4m3 0h1m2 0h1m1 0h1m2 0h2m1 0h1m7 0h1m1 0h2m1 0h1m1 0h2m3 0h1m1 0h2m1 0h1m2 0h1m2 0h2m2 0h1m-152 1h1m1 0h1m2 0h1m1 0h1m8 0h5m1 0h4m3 0h2m1 0h2m5 0h2m2 0h1m1 0h2m1 0h1m1 0h2m2 0h2m2 0h5m3 0h1m2 0h1m3 0h7m7 0h2m1 0h1m1 0h1m2 0h4m2 0h2m2 0h1m2 0h1m2 0h2m1 0h1m1 0h3m2 0h3m1 0h2m3 0h1m2 0h3m1 0h2m4 0h1m1 0h1m1 0h1m2 0h1m-151 1h1m5 0h4m2 0h1m1 0h1m1 0h1m3 0h1m2 0h1m6 0h2m1 0h2m1 0h2m2 0h4m1 0h2m1 0h1m1 0h3m1 0h1m2 0h1m1 0h3m4 0h1m2 0h1m1 0h2m1 0h1m1 0h2m1 0h4m7 0h3m1 0h1m11 0h1m1 0h3m2 0h1m1 0h1m13 0h1m11 0h2m5 0h2m1 0h1m-152 1h5m2 0h1m4 0h3m4 0h1m2 0h3m2 0h1m7 0h2m1 0h2m4 0h1m1 0h2m3 0h2m2 0h1m2 0h1m1 0h1m8 0h1m2 0h1m1 0h2m1 0h3m3 0h1m3 0h4m3 0h2m1 0h3m1 0h5m3 0h1m2 0h4m1 0h4m1 0h3m1 0h3m5 0h2m2 0h1m2 0h1m1 0h5m2 0h3m-153 1h2m1 0h1m2 0h1m3 0h2m2 0h2m1 0h4m1 0h5m1 0h1m1 0h7m2 0h1m3 0h2m3 0h1m1 0h3m3 0h2m1 0h1m1 0h1m1 0h2m1 0h2m2 0h1m1 0h1m1 0h3m1 0h2m1 0h3m6 0h3m6 0h2m4 0h1m1 0h3m1 0h1m2 0h1m1 0h3m1 0h1m6 0h1m1 0h4m1 0h1m1 0h1m2 0h4m3 0h2m1 0h2m-150 1h1m1 0h3m1 0h1m4 0h1m4 0h1m4 0h1m2 0h2m1 0h1m1 0h1m1 0h3m1 0h2m1 0h4m2 0h2m1 0h2m3 0h2m3 0h3m1 0h1m3 0h1m1 0h3m1 0h4m5 0h1m1 0h2m1 0h2m2 0h1m3 0h1m1 0h3m1 0h3m2 0h1m1 0h2m5 0h4m2 0h4m1 0h1m7 0h3m1 0h1m5 0h3m1 0h2m1 0h2m-148 1h3m5 0h1m1 0h3m3 0h2m2 0h2m2 0h4m1 0h2m4 0h1m3 0h1m1 0h1m2 0h2m6 0h1m1 0h3m1 0h1m1 0h2m1 0h2m1 0h1m2 0h3m1 0h1m1 0h2m1 0h2m2 0h1m4 0h1m1 0h4m1 0h1m7 0h1m1 0h3m2 0h1m4 0h1m4 0h1m2 0h5m1 0h1m3 0h1m1 0h2m1 0h2m5 0h2m2 0h1m-151 1h1m1 0h1m2 0h1m2 0h8m2 0h1m4 0h1m1 0h8m1 0h1m2 0h8m1 0h1m1 0h1m4 0h1m3 0h1m2 0h5m1 0h1m2 0h13m4 0h1m1 0h1m1 0h4m4 0h3m1 0h2m1 0h1m1 0h1m1 0h2m1 0h4m1 0h2m2 0h3m2 0h2m2 0h2m1 0h1m4 0h1m1 0h1m1 0h4m1 0h4m-153 1h2m2 0h4m3 0h1m1 0h3m5 0h1m2 0h1m5 0h6m1 0h1m1 0h2m1 0h1m2 0h1m1 0h1m1 0h2m3 0h3m2 0h2m1 0h2m2 0h4m1 0h2m3 0h1m1 0h1m7 0h2m1 0h1m3 0h2m3 0h1m1 0h4m1 0h1m2 0h1m4 0h1m3 0h1m2 0h1m1 0h1m4 0h1m1 0h3m2 0h1m1 0h1m1 0h2m1 0h1m4 0h2m1 0h1m-150 1h2m1 0h1m3 0h3m1 0h1m1 0h1m1 0h2m3 0h1m1 0h5m2 0h1m1 0h4m4 0h1m1 0h1m3 0h4m7 0h1m1 0h3m5 0h2m2 0h1m3 0h1m1 0h1m2 0h1m1 0h3m1 0h3m1 0h4m4 0h1m1 0h2m1 0h2m1 0h1m3 0h1m4 0h4m3 0h1m1 0h4m3 0h1m2 0h1m1 0h4m4 0h3m4 0h1m-151 1h2m4 0h2m2 0h1m1 0h2m1 0h1m1 0h5m1 0h1m3 0h2m1 0h2m1 0h1m1 0h3m3 0h1m3 0h1m1 0h1m7 0h1m2 0h1m4 0h4m1 0h2m1 0h2m3 0h2m2 0h5m1 0h1m1 0h1m2 0h1m1 0h2m1 0h1m1 0h4m4 0h3m1 0h4m4 0h1m1 0h3m1 0h1m3 0h2m1 0h1m2 0h1m1 0h2m1 0h4m1 0h2m2 0h2m1 0h1m-151 1h2m4 0h1m1 0h4m1 0h2m5 0h1m1 0h1m3 0h2m1 0h1m2 0h2m2 0h2m1 0h1m5 0h1m1 0h1m1 0h1m1 0h1m1 0h1m2 0h3m1 0h2m2 0h2m10 0h3m1 0h1m1 0h1m1 0h4m1 0h1m2 0h1m1 0h1m2 0h1m1 0h3m1 0h2m3 0h1m1 0h5m1 0h1m1 0h1m3 0h3m2 0h2m3 0h1m1 0h2m1 0h1m3 0h1m3 0h2m4 0h1m-153 1h2m1 0h1m1 0h2m2 0h3m3 0h2m3 0h1m3 0h1m1 0h2m3 0h2m1 0h1m3 0h2m3 0h2m2 0h2m2 0h2m2 0h5m2 0h1m1 0h1m2 0h3m2 0h3m4 0h1m1 0h1m2 0h2m4 0h1m2 0h5m2 0h1m1 0h1m2 0h1m1 0h3m4 0h2m2 0h1m3 0h1m3 0h2m1 0h4m1 0h1m3 0h5m1 0h1m1 0h2m2 0h2m-152 1h2m2 0h2m1 0h2m1 0h2m1 0h1m2 0h1m2 0h1m3 0h2m3 0h3m1 0h1m1 0h2m2 0h4m6 0h1m2 0h1m1 0h4m2 0h2m2 0h2m1 0h2m7 0h1m1 0h2m1 0h2m1 0h1m2 0h2m1 0h4m3 0h2m4 0h1m2 0h1m1 0h2m2 0h2m1 0h4m1 0h3m1 0h4m3 0h1m1 0h7m3 0h2m1 0h1m3 0h3m-151 1h1m1 0h2m1 0h1m2 0h1m3 0h1m3 0h1m2 0h3m3 0h1m1 0h4m6 0h5m1 0h1m5 0h1m1 0h2m6 0h1m4 0h4m1 0h4m2 0h2m3 0h2m1 0h3m3 0h1m3 0h8m4 0h6m1 0h1m4 0h1m1 0h1m1 0h2m3 0h3m5 0h1m3 0h3m2 0h2m2 0h1m2 0h1m-151 1h2m1 0h1m3 0h1m1 0h1m4 0h1m2 0h2m2 0h1m4 0h1m1 0h2m4 0h8m2 0h1m1 0h2m1 0h1m3 0h2m1 0h2m2 0h1m2 0h4m2 0h1m1 0h1m1 0h1m1 0h1m1 0h1m1 0h1m1 0h4m2 0h1m2 0h2m4 0h1m1 0h6m4 0h1m2 0h6m1 0h1m3 0h3m7 0h1m1 0h2m3 0h2m2 0h1m1 0h2m3 0h2m-153 1h3m1 0h1m1 0h1m5 0h2m1 0h1m1 0h1m1 0h1m1 0h2m1 0h4m2 0h1m3 0h1m2 0h1m1 0h3m1 0h1m2 0h1m2 0h1m1 0h2m1 0h1m2 0h2m2 0h2m1 0h2m1 0h1m2 0h1m7 0h3m1 0h1m2 0h1m1 0h1m6 0h2m3 0h4m4 0h2m2 0h1m8 0h1m5 0h4m1 0h2m1 0h1m4 0h1m1 0h1m5 0h1m2 0h1m-150 1h2m1 0h2m2 0h1m1 0h4m1 0h1m1 0h5m2 0h2m2 0h2m3 0h1m1 0h3m1 0h1m1 0h1m2 0h3m1 0h2m1 0h1m1 0h1m4 0h1m1 0h7m2 0h4m4 0h1m7 0h4m2 0h1m1 0h1m2 0h3m1 0h3m1 0h2m1 0h2m4 0h6m2 0h6m1 0h1m4 0h1m1 0h1m1 0h1m5 0h2m2 0h2m1 0h3m-153 1h1m3 0h5m3 0h3m5 0h1m1 0h1m1 0h3m1 0h1m1 0h7m1 0h1m1 0h1m4 0h4m1 0h1m4 0h11m1 0h3m4 0h1m1 0h1m3 0h1m2 0h1m1 0h2m1 0h5m1 0h1m3 0h3m2 0h1m2 0h1m1 0h4m4 0h5m2 0h1m3 0h1m1 0h2m2 0h3m2 0h1m2 0h2m1 0h6m-149 1h4m3 0h2m1 0h2m1 0h2m1 0h3m1 0h1m1 0h4m3 0h3m3 0h1m2 0h1m1 0h2m3 0h4m4 0h1m1 0h5m3 0h1m1 0h4m4 0h3m1 0h1m1 0h4m1 0h1m1 0h2m3 0h1m7 0h1m1 0h4m3 0h1m2 0h1m3 0h1m3 0h1m1 0h1m1 0h1m1 0h1m2 0h1m5 0h1m1 0h2m1 0h2m1 0h2m3 0h1m1 0h1m1 0h1m-153 1h1m2 0h2m1 0h1m1 0h1m1 0h1m3 0h1m2 0h4m2 0h2m1 0h2m1 0h1m2 0h1m1 0h1m1 0h1m1 0h2m2 0h1m3 0h1m1 0h1m2 0h3m4 0h3m1 0h1m1 0h2m3 0h1m1 0h1m1 0h3m2 0h1m2 0h8m1 0h1m1 0h3m3 0h4m3 0h1m1 0h3m1 0h1m1 0h2m1 0h1m1 0h1m1 0h1m1 0h1m4 0h6m3 0h1m1 0h2m1 0h1m1 0h2m1 0h1m1 0h1m1 0h2m-151 1h2m1 0h1m3 0h1m1 0h4m1 0h1m1 0h3m1 0h1m1 0h2m1 0h1m2 0h2m1 0h1m3 0h1m1 0h1m7 0h4m1 0h3m1 0h2m3 0h1m3 0h2m5 0h1m1 0h1m4 0h1m2 0h5m2 0h1m3 0h5m1 0h1m2 0h5m1 0h2m2 0h4m1 0h1m3 0h4m1 0h2m6 0h6m4 0h2m3 0h4m-152 1h2m1 0h8m3 0h1m5 0h2m1 0h1m1 0h2m4 0h8m1 0h2m2 0h7m2 0h1m1 0h3m2 0h5m2 0h1m1 0h4m1 0h2m1 0h1m1 0h1m2 0h1m1 0h3m1 0h6m1 0h1m1 0h2m1 0h1m5 0h1m2 0h3m3 0h6m3 0h1m3 0h3m4 0h1m5 0h2m1 0h5m3 0h1m-153 1h2m1 0h1m1 0h1m1 0h3m2 0h2m2 0h1m2 0h2m1 0h5m3 0h1m2 0h1m2 0h1m1 0h2m1 0h1m1 0h1m2 0h1m1 0h1m1 0h2m3 0h2m1 0h2m3 0h1m1 0h1m2 0h2m2 0h2m1 0h1m2 0h2m2 0h1m1 0h1m2 0h1m9 0h1m4 0h4m3 0h1m1 0h4m1 0h1m4 0h4m1 0h1m1 0h2m2 0h1m1 0h4m2 0h2m1 0h1m3 0h2m1 0h3m-153 1h1m4 0h2m3 0h1m1 0h1m4 0h6m1 0h2m3 0h1m1 0h2m1 0h3m1 0h1m1 0h4m1 0h2m3 0h3m1 0h1m1 0h4m1 0h1m3 0h1m1 0h1m3 0h1m2 0h4m5 0h2m1 0h3m9 0h2m5 0h1m1 0h2m6 0h1m1 0h4m1 0h1m3 0h2m1 0h1m1 0h1m2 0h1m3 0h2m1 0h1m2 0h3m-147 1h1m3 0h2m1 0h2m1 0h3m1 0h6m1 0h1m4 0h1m2 0h3m1 0h1m2 0h2m3 0h5m2 0h1m1 0h2m2 0h3m3 0h1m7 0h1m2 0h1m1 0h1m3 0h1m1 0h1m1 0h2m2 0h5m1 0h2m1 0h3m3 0h1m1 0h1m2 0h1m1 0h3m1 0h1m2 0h1m1 0h1m1 0h1m1 0h2m1 0h1m1 0h2m3 0h1m2 0h1m1 0h1m1 0h2m5 0h1m5 0h1m1 0h1m-153 1h1m5 0h1m2 0h2m2 0h1m2 0h2m1 0h1m1 0h3m2 0h1m1 0h1m1 0h1m3 0h2m1 0h1m1 0h5m1 0h1m3 0h1m1 0h1m1 0h2m1 0h1m3 0h3m1 0h1m1 0h2m1 0h2m2 0h1m2 0h1m1 0h5m1 0h1m2 0h2m1 0h1m1 0h1m2 0h3m1 0h3m4 0h1m1 0h1m1 0h2m1 0h1m3 0h1m1 0h1m2 0h3m3 0h2m1 0h2m1 0h1m5 0h5m4 0h1m-150 1h2m2 0h2m1 0h1m1 0h1m2 0h1m1 0h2m1 0h2m1 0h3m2 0h2m1 0h1m1 0h1m4 0h1m3 0h1m4 0h2m1 0h1m2 0h3m2 0h3m1 0h3m1 0h1m2 0h4m2 0h5m4 0h1m1 0h1m2 0h2m1 0h2m1 0h1m1 0h3m2 0h1m2 0h3m2 0h1m3 0h2m3 0h1m1 0h1m2 0h4m4 0h2m1 0h1m1 0h3m3 0h2m5 0h4m1 0h1m-153 1h2m2 0h1m1 0h1m1 0h1m1 0h2m3 0h2m4 0h1m1 0h3m1 0h1m1 0h1m1 0h3m2 0h2m1 0h1m2 0h6m2 0h1m1 0h1m1 0h2m1 0h1m1 0h1m1 0h2m1 0h2m1 0h1m2 0h1m1 0h1m1 0h2m2 0h2m3 0h2m1 0h7m2 0h2m1 0h3m5 0h1m1 0h1m4 0h3m1 0h1m1 0h2m1 0h1m3 0h6m2 0h1m4 0h1m1 0h1m1 0h4m2 0h3m-152 1h1m1 0h1m1 0h2m1 0h5m2 0h1m1 0h2m1 0h2m1 0h1m1 0h4m3 0h3m4 0h2m1 0h1m2 0h1m1 0h2m2 0h1m4 0h1m4 0h1m1 0h2m2 0h5m4 0h1m3 0h3m4 0h4m1 0h2m2 0h2m1 0h2m1 0h2m2 0h1m3 0h1m4 0h1m1 0h2m2 0h2m1 0h1m1 0h2m1 0h1m3 0h2m1 0h1m1 0h2m7 0h3m1 0h2m-152 1h2m2 0h3m4 0h2m1 0h1m2 0h1m3 0h1m2 0h1m1 0h1m7 0h1m3 0h2m1 0h2m1 0h2m4 0h1m3 0h1m1 0h1m2 0h1m1 0h1m2 0h1m2 0h1m1 0h2m1 0h1m2 0h2m1 0h9m2 0h1m2 0h1m1 0h2m1 0h1m1 0h2m5 0h3m1 0h2m1 0h1m2 0h2m1 0h1m2 0h3m3 0h3m1 0h1m1 0h2m5 0h2m1 0h1m4 0h1m-149 1h1m1 0h1m5 0h1m1 0h5m2 0h1m3 0h3m1 0h1m1 0h3m1 0h1m2 0h1m1 0h1m2 0h1m4 0h2m1 0h2m3 0h6m1 0h2m2 0h1m2 0h3m7 0h1m4 0h5m2 0h1m1 0h1m1 0h1m1 0h3m1 0h1m1 0h5m6 0h1m1 0h1m6 0h1m1 0h2m1 0h1m2 0h1m5 0h2m1 0h1m1 0h2m5 0h6m-153 1h1m1 0h2m2 0h1m4 0h2m3 0h1m3 0h3m2 0h2m3 0h1m1 0h1m2 0h1m1 0h2m1 0h1m3 0h2m3 0h3m3 0h1m1 0h1m3 0h1m1 0h2m3 0h2m1 0h1m3 0h1m5 0h2m1 0h1m2 0h1m2 0h2m1 0h2m1 0h2m1 0h2m1 0h1m3 0h4m1 0h1m3 0h6m1 0h1m3 0h4m1 0h2m6 0h1m1 0h1m1 0h4m2 0h1m-149 1h1m1 0h2m2 0h1m1 0h2m1 0h1m4 0h2m2 0h1m2 0h2m10 0h1m1 0h8m5 0h3m1 0h3m1 0h1m1 0h1m3 0h2m2 0h3m3 0h1m1 0h1m3 0h1m5 0h1m1 0h2m5 0h1m1 0h1m1 0h1m1 0h1m2 0h1m5 0h1m1 0h2m2 0h2m1 0h2m1 0h1m1 0h2m6 0h6m8 0h1m2 0h1m1 0h1m-150 1h1m2 0h5m1 0h2m2 0h5m2 0h3m2 0h1m1 0h2m2 0h2m1 0h1m1 0h4m8 0h1m2 0h3m1 0h1m3 0h3m3 0h2m1 0h2m1 0h1m3 0h2m1 0h1m1 0h7m1 0h1m1 0h1m2 0h3m1 0h2m4 0h1m1 0h3m5 0h2m2 0h1m1 0h1m1 0h1m5 0h3m2 0h2m4 0h2m1 0h2m3 0h1m-150 1h1m1 0h1m1 0h1m2 0h5m1 0h1m1 0h1m1 0h1m1 0h1m1 0h1m1 0h5m1 0h2m2 0h2m1 0h4m4 0h3m2 0h2m1 0h1m3 0h1m2 0h2m2 0h1m1 0h1m3 0h2m2 0h1m1 0h1m1 0h1m1 0h2m2 0h6m2 0h4m1 0h1m1 0h1m1 0h1m2 0h3m1 0h1m4 0h1m1 0h1m1 0h1m5 0h3m1 0h1m1 0h2m2 0h1m2 0h4m1 0h2m1 0h1m3 0h6m-152 1h1m2 0h1m1 0h2m1 0h1m3 0h2m3 0h1m2 0h1m4 0h1m1 0h1m1 0h5m1 0h2m2 0h4m1 0h3m4 0h1m1 0h2m1 0h1m1 0h1m4 0h3m1 0h1m1 0h1m6 0h1m1 0h1m1 0h1m1 0h1m1 0h4m1 0h2m2 0h1m1 0h2m2 0h3m5 0h2m1 0h1m1 0h3m1 0h4m6 0h1m1 0h3m2 0h1m4 0h1m1 0h1m2 0h3m-147 1h1m2 0h2m2 0h1m6 0h3m2 0h2m1 0h1m1 0h1m2 0h2m1 0h1m1 0h1m1 0h4m1 0h1m6 0h1m3 0h1m1 0h4m1 0h1m3 0h2m1 0h1m2 0h2m2 0h1m2 0h4m2 0h1m2 0h3m2 0h1m4 0h3m1 0h4m1 0h1m2 0h1m1 0h2m3 0h3m1 0h1m3 0h2m1 0h1m1 0h1m6 0h4m1 0h1m5 0h1m4 0h1m1 0h1m1 0h1m-153 1h2m1 0h2m1 0h5m1 0h1m1 0h3m1 0h1m2 0h3m1 0h1m4 0h1m3 0h1m2 0h1m1 0h2m4 0h3m1 0h3m4 0h2m4 0h1m2 0h1m1 0h1m2 0h4m2 0h1m3 0h2m1 0h1m2 0h1m2 0h1m2 0h1m1 0h1m1 0h1m1 0h4m4 0h1m2 0h2m6 0h1m2 0h1m1 0h2m2 0h6m3 0h1m2 0h1m2 0h2m1 0h1m2 0h1m1 0h1m-150 1h1m2 0h1m1 0h1m1 0h1m1 0h1m1 0h1m5 0h2m3 0h1m6 0h1m1 0h3m3 0h1m6 0h1m3 0h3m8 0h1m1 0h1m3 0h4m6 0h2m1 0h3m5 0h2m2 0h2m2 0h1m2 0h1m1 0h6m7 0h1m3 0h1m1 0h1m2 0h1m1 0h3m3 0h2m4 0h2m1 0h1m2 0h1m6 0h3m1 0h1m-153 1h2m1 0h1m2 0h1m1 0h3m1 0h1m5 0h1m1 0h1m2 0h1m3 0h1m2 0h1m1 0h1m1 0h2m1 0h9m3 0h1m2 0h1m1 0h1m1 0h3m1 0h1m2 0h1m3 0h1m1 0h9m1 0h1m1 0h1m3 0h3m4 0h2m1 0h2m1 0h1m1 0h3m3 0h3m2 0h1m2 0h2m1 0h1m1 0h2m1 0h1m4 0h3m1 0h2m1 0h1m4 0h3m1 0h5m3 0h1m-151 1h1m1 0h1m3 0h1m5 0h2m1 0h4m1 0h2m1 0h1m2 0h1m3 0h2m2 0h2m4 0h2m6 0h2m1 0h1m2 0h2m3 0h2m5 0h3m2 0h1m1 0h1m1 0h1m1 0h1m3 0h2m2 0h2m3 0h1m3 0h2m1 0h2m1 0h2m2 0h1m2 0h1m2 0h1m2 0h1m2 0h2m1 0h2m1 0h1m1 0h1m2 0h1m1 0h1m1 0h2m1 0h1m1 0h1m2 0h1m2 0h1m4 0h1m1 0h1m1 0h1m-150 1h2m1 0h2m3 0h1m1 0h3m1 0h1m1 0h1m3 0h2m1 0h1m4 0h1m1 0h2m4 0h1m1 0h1m1 0h3m1 0h2m2 0h1m1 0h1m2 0h1m1 0h1m1 0h1m2 0h1m1 0h1m1 0h1m2 0h3m1 0h2m2 0h4m1 0h2m1 0h1m1 0h2m1 0h1m3 0h1m1 0h1m1 0h1m6 0h6m1 0h1m3 0h1m2 0h1m1 0h2m2 0h1m7 0h2m2 0h5m1 0h1m2 0h1m1 0h1m1 0h1m-152 1h1m1 0h2m5 0h2m2 0h4m2 0h1m2 0h2m3 0h2m1 0h3m1 0h3m2 0h1m1 0h2m1 0h4m3 0h1m1 0h2m4 0h1m2 0h1m1 0h1m1 0h2m2 0h7m1 0h1m1 0h1m3 0h1m1 0h2m3 0h2m2 0h2m3 0h6m1 0h1m4 0h1m2 0h2m2 0h2m2 0h2m1 0h1m2 0h1m4 0h5m2 0h1m6 0h1m1 0h1m1 0h1m-151 1h7m4 0h2m2 0h3m2 0h5m3 0h2m2 0h1m3 0h3m3 0h2m1 0h1m3 0h1m1 0h1m2 0h2m1 0h4m1 0h2m2 0h1m1 0h1m1 0h2m6 0h1m4 0h1m4 0h1m1 0h1m1 0h2m1 0h1m2 0h3m2 0h2m1 0h2m1 0h1m1 0h3m1 0h3m2 0h1m3 0h7m1 0h1m4 0h9m3 0h1m-152 1h1m2 0h3m3 0h2m1 0h3m1 0h3m1 0h2m5 0h1m1 0h1m1 0h4m2 0h1m2 0h3m3 0h2m2 0h1m4 0h1m2 0h2m2 0h1m9 0h3m2 0h1m1 0h1m2 0h1m1 0h4m2 0h2m3 0h3m3 0h2m2 0h1m2 0h1m3 0h3m3 0h1m2 0h1m1 0h1m1 0h2m1 0h1m4 0h1m1 0h4m8 0h1m2 0h3m-153 1h1m3 0h6m4 0h2m1 0h1m2 0h3m1 0h4m1 0h2m1 0h5m2 0h4m1 0h1m1 0h2m1 0h1m1 0h1m1 0h5m1 0h7m1 0h2m1 0h3m1 0h3m3 0h1m3 0h1m3 0h5m1 0h1m1 0h4m6 0h6m4 0h8m3 0h2m1 0h1m1 0h1m1 0h2m3 0h11m-148 1h1m1 0h1m3 0h2m2 0h1m2 0h3m1 0h2m1 0h1m1 0h2m1 0h2m1 0h1m1 0h1m3 0h1m2 0h1m1 0h1m1 0h1m1 0h2m2 0h5m2 0h1m1 0h3m3 0h1m5 0h1m1 0h1m1 0h1m2 0h1m7 0h4m3 0h3m1 0h1m1 0h1m2 0h4m7 0h1m1 0h1m1 0h1m3 0h1m3 0h1m1 0h1m1 0h2m1 0h1m2 0h5m2 0h1m2 0h1m3 0h1m1 0h3m-153 1h3m1 0h1m1 0h1m1 0h2m3 0h2m1 0h1m2 0h2m1 0h1m1 0h3m1 0h1m1 0h3m1 0h1m1 0h1m1 0h1m2 0h1m1 0h1m1 0h1m2 0h1m2 0h4m1 0h1m3 0h1m1 0h1m1 0h1m3 0h2m1 0h2m1 0h1m1 0h1m1 0h5m1 0h3m1 0h1m1 0h1m1 0h6m2 0h1m4 0h5m1 0h1m1 0h2m1 0h1m1 0h1m1 0h1m5 0h2m1 0h4m5 0h4m2 0h1m1 0h1m1 0h2m-150 1h5m3 0h1m1 0h1m4 0h1m1 0h1m1 0h1m1 0h2m2 0h1m3 0h1m2 0h1m3 0h2m1 0h1m2 0h2m1 0h3m2 0h1m4 0h4m1 0h1m3 0h1m1 0h1m1 0h1m1 0h2m2 0h1m2 0h1m1 0h4m1 0h1m3 0h1m3 0h1m1 0h1m4 0h5m1 0h1m1 0h2m2 0h2m1 0h3m3 0h2m1 0h4m5 0h2m1 0h3m5 0h2m3 0h1m1 0h1m1 0h1m-153 1h2m1 0h7m1 0h2m1 0h1m1 0h1m1 0h1m1 0h1m1 0h1m1 0h1m3 0h1m2 0h8m2 0h3m4 0h1m1 0h1m2 0h1m1 0h3m2 0h8m2 0h2m1 0h1m4 0h1m1 0h1m3 0h1m1 0h8m1 0h2m2 0h1m4 0h1m1 0h1m1 0h4m1 0h1m1 0h6m1 0h2m5 0h2m1 0h1m1 0h1m3 0h12m-150 1h1m1 0h1m2 0h1m1 0h1m3 0h2m1 0h2m3 0h1m3 0h5m2 0h1m3 0h2m2 0h1m1 0h1m1 0h1m5 0h2m1 0h1m3 0h1m3 0h1m3 0h1m1 0h1m2 0h2m5 0h5m1 0h1m1 0h2m3 0h1m1 0h2m2 0h3m1 0h1m1 0h1m1 0h4m1 0h1m3 0h2m1 0h1m2 0h1m1 0h2m1 0h3m3 0h2m5 0h4m8 0h2m1 0h1m1 0h1m-153 1h1m1 0h1m1 0h1m1 0h1m1 0h1m3 0h2m1 0h1m1 0h3m1 0h1m4 0h2m2 0h1m3 0h1m2 0h1m1 0h1m1 0h1m3 0h2m1 0h1m1 0h1m2 0h3m3 0h1m1 0h7m2 0h2m1 0h2m1 0h1m1 0h1m3 0h2m3 0h4m1 0h2m3 0h2m2 0h2m2 0h1m2 0h2m12 0h1m4 0h1m1 0h4m1 0h1m4 0h3m2 0h1m3 0h1m2 0h1m-151 1h3m4 0h2m1 0h1m1 0h1m4 0h2m1 0h2m1 0h3m1 0h1m1 0h1m2 0h1m2 0h1m2 0h3m1 0h1m3 0h3m3 0h4m2 0h4m2 0h3m1 0h2m2 0h1m1 0h3m4 0h1m1 0h1m1 0h3m2 0h1m2 0h7m1 0h1m1 0h2m1 0h2m3 0h3m2 0h5m1 0h3m2 0h1m3 0h2m1 0h1m1 0h2m1 0h1m4 0h3m2 0h1m-151 1h1m1 0h1m1 0h1m1 0h2m3 0h3m2 0h2m2 0h1m2 0h1m1 0h1m1 0h2m1 0h2m1 0h3m3 0h3m1 0h1m1 0h2m11 0h2m2 0h1m1 0h1m3 0h7m3 0h1m1 0h2m1 0h2m1 0h1m1 0h4m5 0h1m1 0h3m1 0h1m2 0h5m4 0h2m1 0h1m1 0h1m1 0h2m2 0h1m2 0h2m1 0h1m1 0h2m5 0h1m1 0h2m4 0h1m1 0h1m-152 1h3m1 0h2m2 0h5m3 0h1m2 0h1m4 0h2m4 0h4m1 0h1m1 0h4m3 0h1m1 0h1m1 0h1m1 0h2m3 0h1m1 0h4m3 0h2m5 0h5m3 0h3m1 0h7m3 0h1m1 0h1m3 0h2m2 0h3m6 0h1m1 0h1m2 0h2m1 0h2m1 0h7m1 0h1m1 0h1m1 0h7m2 0h1m2 0h1m2 0h3m-153 1h2m3 0h3m1 0h1m2 0h5m2 0h4m5 0h2m1 0h2m1 0h1m3 0h1m6 0h1m2 0h1m2 0h1m3 0h2m1 0h2m1 0h3m7 0h3m1 0h4m1 0h2m1 0h1m1 0h6m3 0h1m2 0h1m1 0h1m2 0h1m2 0h4m2 0h1m1 0h2m11 0h2m1 0h1m1 0h2m1 0h1m3 0h2m1 0h1m2 0h1m3 0h3m-151 1h1m2 0h1m5 0h2m1 0h1m2 0h1m1 0h2m1 0h1m2 0h2m2 0h1m1 0h2m1 0h1m1 0h1m2 0h1m3 0h1m3 0h1m2 0h1m1 0h1m2 0h4m1 0h1m1 0h1m1 0h1m2 0h5m1 0h5m5 0h1m8 0h1m1 0h4m1 0h6m5 0h1m5 0h1m2 0h5m1 0h1m1 0h1m6 0h2m1 0h3m5 0h5m2 0h1m-148 1h4m1 0h1m1 0h1m1 0h1m3 0h4m4 0h4m1 0h4m1 0h4m1 0h1m1 0h2m1 0h1m1 0h1m2 0h2m1 0h4m1 0h1m1 0h1m1 0h8m2 0h7m1 0h1m5 0h1m1 0h1m1 0h2m4 0h3m7 0h7m1 0h1m1 0h4m1 0h1m1 0h2m2 0h1m1 0h4m1 0h6m1 0h4m3 0h1m1 0h1m1 0h1m-151 1h1m1 0h3m1 0h2m7 0h2m3 0h1m1 0h1m2 0h1m2 0h1m3 0h1m1 0h3m2 0h1m1 0h2m2 0h1m3 0h1m1 0h1m1 0h1m1 0h1m2 0h1m2 0h1m2 0h1m2 0h2m3 0h1m1 0h3m2 0h2m3 0h2m5 0h1m1 0h3m5 0h3m2 0h1m4 0h3m2 0h2m1 0h1m1 0h4m2 0h2m5 0h2m1 0h1m1 0h2m8 0h3m-153 1h1m1 0h5m2 0h1m1 0h1m3 0h3m5 0h4m7 0h3m1 0h2m1 0h7m1 0h1m1 0h2m1 0h1m1 0h1m1 0h1m1 0h3m2 0h6m2 0h4m5 0h3m1 0h2m2 0h1m2 0h1m1 0h5m2 0h1m5 0h1m1 0h2m1 0h2m1 0h1m5 0h1m3 0h2m1 0h1m1 0h2m6 0h1m1 0h1m6 0h1m1 0h1m-151 1h1m1 0h1m1 0h2m1 0h1m1 0h2m1 0h1m1 0h2m2 0h1m2 0h2m2 0h2m1 0h1m2 0h3m1 0h1m2 0h1m1 0h1m2 0h3m1 0h5m1 0h4m1 0h2m5 0h3m1 0h3m1 0h7m1 0h1m1 0h1m1 0h1m2 0h1m1 0h1m5 0h1m1 0h1m3 0h4m7 0h3m1 0h5m1 0h1m1 0h2m5 0h4m1 0h2m1 0h1m4 0h3m2 0h2m-152 1h2m2 0h1m1 0h2m1 0h1m3 0h1m4 0h1m1 0h1m1 0h1m1 0h3m3 0h1m1 0h1m1 0h4m1 0h1m1 0h1m2 0h1m3 0h3m1 0h1m1 0h5m1 0h5m4 0h1m1 0h3m3 0h1m3 0h1m1 0h3m4 0h3m3 0h1m1 0h1m2 0h1m1 0h1m2 0h5m5 0h1m3 0h1m1 0h2m5 0h2m4 0h2m2 0h1m1 0h4m2 0h1m1 0h1m-147 1h3m1 0h1m3 0h2m1 0h1m1 0h3m7 0h3m1 0h2m1 0h2m1 0h1m1 0h1m1 0h1m1 0h1m3 0h1m1 0h1m3 0h2m1 0h2m1 0h2m3 0h1m3 0h1m1 0h2m1 0h1m1 0h2m2 0h1m1 0h2m2 0h1m1 0h3m3 0h1m1 0h5m2 0h4m2 0h1m3 0h5m1 0h1m2 0h1m2 0h2m4 0h1m5 0h2m1 0h1m1 0h2m2 0h1m4 0h4m-151 1h1m2 0h3m3 0h1m2 0h2m3 0h1m1 0h2m4 0h3m1 0h1m2 0h1m2 0h1m1 0h2m1 0h1m3 0h6m5 0h2m1 0h1m3 0h1m6 0h1m3 0h1m3 0h1m2 0h2m1 0h7m1 0h1m1 0h2m1 0h1m3 0h1m3 0h1m1 0h3m2 0h3m6 0h1m3 0h4m1 0h2m1 0h1m4 0h1m1 0h1m1 0h2m2 0h2m-149 1h2m1 0h1m3 0h1m2 0h2m1 0h2m8 0h2m3 0h1m3 0h1m1 0h1m1 0h2m2 0h1m3 0h2m1 0h4m1 0h1m1 0h1m1 0h2m1 0h3m1 0h3m1 0h1m3 0h6m1 0h1m3 0h1m4 0h1m2 0h1m1 0h4m5 0h2m8 0h2m1 0h1m3 0h9m1 0h1m3 0h2m1 0h1m1 0h2m1 0h1m3 0h3m3 0h1m-151 1h2m2 0h4m1 0h1m4 0h2m1 0h1m1 0h8m1 0h1m1 0h1m1 0h2m2 0h1m2 0h3m2 0h2m3 0h1m1 0h3m1 0h2m1 0h5m2 0h2m1 0h1m2 0h1m2 0h3m1 0h1m3 0h1m1 0h3m4 0h1m1 0h1m1 0h1m3 0h1m3 0h1m1 0h2m1 0h4m1 0h1m1 0h3m2 0h1m3 0h1m4 0h2m2 0h3m4 0h4m5 0h1m2 0h1m-153 1h3m2 0h1m2 0h1m4 0h2m1 0h1m1 0h2m1 0h1m1 0h8m4 0h2m1 0h1m1 0h1m2 0h1m3 0h2m3 0h1m3 0h1m1 0h1m1 0h1m1 0h1m2 0h5m1 0h2m2 0h3m2 0h1m1 0h3m8 0h1m1 0h1m2 0h1m3 0h1m1 0h1m4 0h1m2 0h1m1 0h1m2 0h2m1 0h2m1 0h2m2 0h3m2 0h1m2 0h2m1 0h1m1 0h3m4 0h1m1 0h2m1 0h1m-150 1h1m2 0h3m3 0h1m2 0h1m2 0h1m1 0h1m2 0h3m2 0h1m2 0h5m3 0h2m3 0h1m1 0h1m1 0h1m1 0h1m2 0h2m1 0h2m2 0h3m1 0h2m2 0h2m2 0h2m7 0h1m3 0h1m2 0h1m4 0h2m3 0h2m1 0h3m1 0h1m1 0h3m1 0h1m14 0h2m1 0h3m6 0h2m1 0h1m6 0h1m2 0h1m-152 1h1m2 0h1m3 0h2m2 0h1m4 0h2m1 0h2m6 0h3m5 0h1m2 0h3m1 0h4m2 0h2m3 0h1m3 0h2m1 0h1m4 0h1m2 0h1m1 0h2m1 0h1m1 0h1m1 0h7m2 0h1m2 0h2m1 0h1m3 0h3m2 0h2m1 0h2m1 0h2m2 0h4m2 0h5m1 0h3m6 0h2m1 0h3m2 0h1m4 0h3m2 0h1m1 0h1m-152 1h1m1 0h2m1 0h2m1 0h1m1 0h1m1 0h2m4 0h1m2 0h1m1 0h4m1 0h2m1 0h2m5 0h1m1 0h2m1 0h1m1 0h1m2 0h1m2 0h2m1 0h3m1 0h2m1 0h3m2 0h1m1 0h1m1 0h1m1 0h1m1 0h1m1 0h3m1 0h1m2 0h2m5 0h1m1 0h1m1 0h1m1 0h2m7 0h1m2 0h2m4 0h3m2 0h1m1 0h2m2 0h1m2 0h2m3 0h3m1 0h2m1 0h4m2 0h1m1 0h1m1 0h1m-152 1h1m1 0h4m1 0h1m2 0h4m1 0h1m1 0h1m1 0h2m1 0h1m1 0h4m1 0h1m1 0h4m3 0h2m1 0h1m1 0h2m1 0h1m1 0h1m1 0h1m1 0h1m1 0h8m3 0h2m1 0h1m3 0h4m1 0h3m2 0h2m1 0h1m3 0h1m4 0h4m1 0h1m1 0h6m4 0h2m1 0h1m2 0h1m2 0h1m1 0h2m1 0h1m1 0h1m1 0h1m2 0h1m2 0h4m1 0h3m2 0h3m2 0h1m1 0h1m-150 1h2m1 0h1m1 0h2m1 0h1m1 0h1m1 0h3m3 0h1m2 0h8m2 0h3m3 0h3m1 0h1m5 0h2m3 0h1m1 0h1m3 0h2m7 0h1m1 0h6m2 0h1m1 0h3m2 0h1m1 0h7m1 0h1m2 0h3m2 0h1m1 0h4m4 0h1m2 0h1m5 0h1m1 0h4m1 0h1m2 0h1m4 0h1m1 0h1m3 0h1m2 0h1m2 0h1m-150 1h1m1 0h2m1 0h3m2 0h1m3 0h1m3 0h1m3 0h5m3 0h4m4 0h4m1 0h1m1 0h1m3 0h1m1 0h1m1 0h2m1 0h2m1 0h2m3 0h1m1 0h1m3 0h2m1 0h2m2 0h3m1 0h2m1 0h1m3 0h1m1 0h2m2 0h8m1 0h1m1 0h2m3 0h3m4 0h3m1 0h1m1 0h2m1 0h1m4 0h5m2 0h1m5 0h2m2 0h1m-150 1h1m1 0h7m1 0h2m1 0h1m1 0h3m4 0h1m2 0h1m3 0h1m1 0h5m3 0h2m2 0h1m1 0h3m4 0h3m3 0h9m1 0h2m1 0h4m1 0h1m1 0h1m2 0h1m3 0h1m1 0h8m1 0h2m1 0h1m2 0h1m2 0h1m1 0h3m5 0h5m1 0h1m1 0h1m3 0h3m4 0h1m2 0h3m1 0h8m1 0h1m-152 1h1m3 0h1m3 0h1m1 0h1m3 0h1m2 0h2m1 0h1m1 0h4m5 0h2m3 0h2m1 0h1m2 0h1m1 0h3m3 0h1m2 0h2m1 0h2m2 0h1m3 0h4m2 0h1m3 0h3m1 0h1m1 0h4m1 0h1m2 0h1m3 0h3m2 0h1m1 0h1m1 0h7m4 0h5m3 0h1m2 0h2m1 0h1m2 0h1m3 0h1m1 0h4m1 0h2m2 0h1m3 0h1m1 0h1m1 0h1m-153 1h5m1 0h1m1 0h2m1 0h1m1 0h2m3 0h1m1 0h3m1 0h1m2 0h3m1 0h2m1 0h1m1 0h1m3 0h1m2 0h2m3 0h1m2 0h1m3 0h1m4 0h1m1 0h1m1 0h2m1 0h6m1 0h2m3 0h1m1 0h2m2 0h1m1 0h2m1 0h1m1 0h1m1 0h1m1 0h4m1 0h1m3 0h1m2 0h1m2 0h1m1 0h1m1 0h2m1 0h1m1 0h1m6 0h3m1 0h2m1 0h1m3 0h2m1 0h1m2 0h1m1 0h1m1 0h1m1 0h2m-152 1h1m1 0h3m3 0h2m2 0h3m6 0h1m2 0h4m1 0h2m1 0h1m3 0h8m3 0h2m1 0h2m5 0h1m2 0h1m3 0h5m1 0h1m8 0h1m1 0h1m1 0h1m1 0h1m2 0h1m3 0h1m3 0h1m1 0h1m1 0h1m1 0h2m3 0h2m4 0h2m1 0h1m3 0h2m1 0h1m1 0h2m5 0h4m1 0h1m6 0h1m3 0h1m1 0h1m1 0h1m-152 1h1m1 0h6m1 0h2m2 0h4m2 0h2m1 0h5m2 0h7m5 0h1m2 0h4m3 0h1m1 0h1m5 0h9m2 0h1m1 0h3m6 0h1m1 0h2m1 0h6m5 0h1m2 0h1m1 0h1m1 0h8m3 0h5m1 0h1m1 0h1m4 0h2m1 0h2m2 0h1m1 0h1m1 0h10m-150 1h4m3 0h1m1 0h6m1 0h2m1 0h1m1 0h3m2 0h1m1 0h2m2 0h3m1 0h1m2 0h1m1 0h3m4 0h7m6 0h4m3 0h3m5 0h4m1 0h2m1 0h1m1 0h1m2 0h1m2 0h3m1 0h1m1 0h1m1 0h1m1 0h4m1 0h1m4 0h1m4 0h1m2 0h2m1 0h3m2 0h2m5 0h2m1 0h1m2 0h2m1 0h1m2 0h2m1 0h3m-153 1h2m4 0h3m1 0h1m1 0h1m1 0h1m3 0h2m6 0h2m3 0h2m2 0h1m1 0h1m2 0h1m1 0h1m1 0h2m2 0h1m3 0h2m1 0h1m2 0h1m2 0h1m1 0h1m4 0h1m1 0h1m1 0h2m6 0h2m2 0h1m1 0h4m1 0h1m1 0h3m3 0h1m1 0h2m3 0h1m1 0h2m1 0h1m1 0h2m1 0h3m1 0h1m6 0h1m1 0h1m1 0h2m6 0h3m5 0h1m2 0h1m-150 1h5m3 0h1m2 0h1m1 0h1m4 0h1m3 0h1m1 0h3m3 0h1m1 0h1m5 0h1m1 0h1m2 0h1m1 0h5m1 0h1m2 0h2m3 0h1m1 0h1m1 0h2m1 0h2m2 0h1m1 0h1m3 0h2m1 0h1m1 0h2m2 0h1m1 0h2m2 0h1m2 0h1m2 0h2m1 0h2m2 0h1m1 0h1m3 0h1m1 0h3m5 0h1m1 0h4m6 0h1m1 0h1m1 0h2m1 0h1m1 0h3m2 0h2m1 0h1m1 0h1m-153 1h1m1 0h1m1 0h4m1 0h6m1 0h1m1 0h4m4 0h2m2 0h1m1 0h1m3 0h1m1 0h1m6 0h2m1 0h1m2 0h1m2 0h1m2 0h2m1 0h5m3 0h2m2 0h1m1 0h4m1 0h1m6 0h1m2 0h2m3 0h3m2 0h1m3 0h1m2 0h1m1 0h5m4 0h4m1 0h2m3 0h4m1 0h4m1 0h1m2 0h1m2 0h1m1 0h2m2 0h1m1 0h1m-152 1h2m1 0h2m7 0h2m1 0h1m2 0h3m3 0h2m1 0h1m2 0h3m1 0h6m1 0h2m1 0h2m1 0h1m1 0h2m2 0h2m1 0h1m1 0h2m3 0h3m1 0h1m3 0h3m1 0h2m2 0h2m3 0h1m2 0h4m1 0h2m6 0h1m1 0h3m4 0h1m1 0h2m1 0h1m1 0h1m3 0h2m1 0h2m1 0h1m1 0h2m2 0h1m2 0h2m1 0h1m1 0h2m2 0h5m1 0h3m-153 1h2m2 0h1m1 0h2m2 0h1m2 0h2m3 0h1m3 0h4m1 0h2m2 0h3m5 0h2m4 0h2m3 0h1m1 0h2m2 0h3m4 0h1m1 0h2m3 0h1m3 0h1m1 0h1m2 0h3m6 0h1m1 0h2m1 0h3m1 0h3m5 0h5m4 0h1m1 0h3m1 0h1m1 0h1m4 0h1m1 0h1m1 0h1m6 0h2m1 0h1m3 0h1m3 0h2m-151 1h2m2 0h1m3 0h2m2 0h3m6 0h1m1 0h3m1 0h3m2 0h3m4 0h2m2 0h1m1 0h1m3 0h2m3 0h2m1 0h1m1 0h3m1 0h1m2 0h1m1 0h2m1 0h1m4 0h3m1 0h2m5 0h1m1 0h1m1 0h2m2 0h1m1 0h6m4 0h2m2 0h1m1 0h3m5 0h1m1 0h4m1 0h1m4 0h3m1 0h2m1 0h1m2 0h3m1 0h4m1 0h1m-152 1h6m1 0h2m1 0h1m3 0h1m4 0h1m3 0h1m3 0h1m1 0h4m1 0h2m3 0h2m1 0h3m1 0h1m1 0h2m2 0h1m1 0h3m2 0h3m2 0h6m2 0h2m6 0h3m3 0h1m1 0h1m1 0h2m4 0h1m5 0h1m1 0h8m4 0h4m1 0h4m3 0h4m2 0h1m4 0h5m1 0h1m-147 1h3m4 0h3m2 0h3m8 0h3m2 0h1m1 0h8m1 0h2m1 0h1m1 0h2m1 0h1m2 0h2m3 0h1m1 0h3m1 0h2m1 0h2m1 0h1m2 0h1m2 0h1m1 0h2m1 0h1m3 0h2m1 0h4m3 0h1m2 0h1m1 0h2m1 0h6m1 0h1m4 0h3m2 0h2m1 0h2m1 0h1m2 0h4m2 0h5m1 0h1m1 0h2m2 0h1m2 0h1m2 0h3m-151 1h2m1 0h2m1 0h2m1 0h1m1 0h1m3 0h1m1 0h4m3 0h1m1 0h1m1 0h2m1 0h1m3 0h4m1 0h3m1 0h4m2 0h1m6 0h5m2 0h2m3 0h2m1 0h2m1 0h1m1 0h1m1 0h7m2 0h1m2 0h1m1 0h3m1 0h1m2 0h1m2 0h2m1 0h1m2 0h1m1 0h2m1 0h3m1 0h1m1 0h1m1 0h1m1 0h2m1 0h3m7 0h1m1 0h1m5 0h1m1 0h2m-151 1h2m1 0h1m4 0h2m3 0h1m2 0h5m1 0h2m2 0h1m1 0h1m1 0h1m1 0h7m5 0h1m6 0h1m1 0h2m4 0h2m5 0h5m1 0h5m1 0h1m1 0h2m1 0h2m2 0h4m3 0h1m2 0h1m1 0h1m2 0h4m1 0h2m4 0h3m2 0h1m2 0h1m1 0h1m1 0h2m1 0h1m4 0h1m1 0h1m1 0h2m1 0h1m2 0h2m3 0h1m1 0h3m-151 1h1m1 0h3m3 0h8m1 0h4m2 0h2m1 0h13m1 0h4m1 0h3m3 0h1m2 0h1m1 0h1m3 0h5m1 0h3m1 0h1m3 0h1m2 0h2m1 0h1m2 0h2m2 0h1m1 0h1m1 0h1m1 0h1m3 0h1m1 0h1m4 0h7m4 0h1m1 0h2m1 0h3m3 0h4m2 0h2m3 0h1m2 0h1m2 0h3m1 0h1m-149 1h1m2 0h2m1 0h8m1 0h3m1 0h2m1 0h6m2 0h1m1 0h1m5 0h2m2 0h1m1 0h2m3 0h1m1 0h2m1 0h1m1 0h1m1 0h5m1 0h5m3 0h6m3 0h1m5 0h2m1 0h4m1 0h1m1 0h1m1 0h5m2 0h1m3 0h4m2 0h1m2 0h1m2 0h3m2 0h3m2 0h6m1 0h2m1 0h2m2 0h1m2 0h3m-152 1h1m4 0h3m1 0h4m1 0h1m1 0h1m1 0h4m1 0h1m3 0h2m3 0h4m3 0h1m2 0h1m2 0h7m1 0h3m2 0h2m2 0h2m2 0h2m5 0h2m2 0h4m1 0h1m4 0h1m1 0h7m1 0h2m1 0h2m3 0h1m1 0h1m1 0h1m2 0h2m1 0h3m1 0h1m1 0h1m3 0h2m1 0h1m1 0h2m5 0h2m1 0h1m7 0h1m-149 1h2m1 0h2m1 0h1m1 0h1m1 0h3m3 0h4m1 0h1m5 0h1m1 0h1m3 0h3m1 0h2m3 0h1m1 0h1m1 0h1m5 0h1m2 0h4m3 0h1m3 0h4m1 0h6m4 0h1m4 0h1m1 0h1m1 0h1m1 0h3m1 0h1m2 0h1m1 0h1m2 0h1m5 0h1m2 0h2m2 0h1m2 0h1m1 0h1m1 0h2m3 0h1m2 0h3m1 0h2m3 0h3m2 0h2m2 0h2m-151 1h1m1 0h4m1 0h3m1 0h1m3 0h2m1 0h1m7 0h1m5 0h2m2 0h5m1 0h6m1 0h2m4 0h1m3 0h1m1 0h1m1 0h2m1 0h8m1 0h1m1 0h1m5 0h3m1 0h1m2 0h6m3 0h1m2 0h1m1 0h1m1 0h3m2 0h1m3 0h1m1 0h2m1 0h1m4 0h1m1 0h1m5 0h1m3 0h2m3 0h3m2 0h1m-150 1h3m1 0h2m1 0h1m2 0h1m4 0h7m2 0h2m4 0h1m1 0h3m1 0h1m1 0h2m2 0h6m1 0h1m5 0h1m1 0h1m1 0h3m3 0h1m2 0h3m1 0h5m1 0h4m2 0h3m6 0h3m1 0h2m1 0h6m1 0h1m1 0h1m1 0h4m2 0h1m2 0h6m2 0h2m3 0h1m1 0h2m1 0h1m1 0h2m2 0h1m2 0h1m2 0h3m-153 1h2m1 0h1m2 0h1m1 0h5m2 0h2m1 0h1m1 0h1m1 0h2m3 0h2m2 0h1m1 0h1m2 0h3m2 0h3m3 0h3m2 0h1m2 0h1m1 0h3m1 0h1m5 0h3m1 0h3m2 0h3m2 0h2m2 0h2m2 0h2m2 0h2m4 0h1m2 0h1m5 0h2m3 0h2m1 0h3m1 0h1m5 0h2m1 0h1m1 0h2m1 0h1m4 0h1m1 0h1m1 0h1m6 0h1m-148 1h1m4 0h2m3 0h1m1 0h1m6 0h2m2 0h1m2 0h2m3 0h1m1 0h3m1 0h2m1 0h1m5 0h1m1 0h1m1 0h3m1 0h1m2 0h5m7 0h4m1 0h2m1 0h4m2 0h1m5 0h1m1 0h1m3 0h1m1 0h1m1 0h2m1 0h1m5 0h1m2 0h2m4 0h2m1 0h3m2 0h1m3 0h2m1 0h1m1 0h2m1 0h1m3 0h1m3 0h1m1 0h3m-153 1h1m1 0h1m1 0h3m6 0h1m2 0h9m1 0h5m1 0h1m7 0h2m1 0h1m2 0h1m1 0h2m1 0h1m2 0h4m1 0h1m1 0h3m3 0h2m3 0h1m1 0h4m1 0h2m2 0h1m1 0h3m1 0h1m1 0h1m1 0h1m1 0h3m3 0h1m4 0h6m1 0h1m3 0h3m2 0h1m3 0h1m2 0h2m1 0h1m1 0h2m4 0h3m2 0h3m1 0h1m-147 1h1m1 0h1m3 0h2m1 0h2m1 0h1m1 0h2m1 0h1m2 0h1m2 0h2m1 0h2m1 0h1m4 0h5m3 0h1m1 0h1m1 0h2m1 0h2m1 0h1m1 0h2m2 0h1m1 0h2m3 0h1m5 0h2m1 0h2m1 0h1m1 0h2m2 0h2m1 0h1m6 0h1m1 0h3m1 0h3m2 0h1m1 0h1m1 0h2m1 0h1m2 0h2m1 0h4m1 0h2m1 0h1m1 0h1m3 0h3m3 0h1m3 0h1m2 0h1m2 0h1m1 0h1m-152 1h4m1 0h1m1 0h2m1 0h2m1 0h1m2 0h2m2 0h4m1 0h1m4 0h2m4 0h2m2 0h2m1 0h1m4 0h4m1 0h3m2 0h1m2 0h1m1 0h1m1 0h4m1 0h1m1 0h1m1 0h1m2 0h2m1 0h1m3 0h2m1 0h1m2 0h1m1 0h1m2 0h2m7 0h2m1 0h1m1 0h1m3 0h1m1 0h2m2 0h1m3 0h1m1 0h2m1 0h4m1 0h1m4 0h1m1 0h3m2 0h1m3 0h2m-149 1h1m3 0h4m4 0h1m1 0h1m1 0h1m3 0h1m3 0h1m1 0h3m3 0h2m1 0h1m3 0h3m1 0h1m3 0h2m1 0h1m1 0h6m1 0h2m3 0h3m2 0h4m2 0h6m2 0h1m2 0h1m2 0h1m1 0h3m1 0h3m1 0h1m1 0h2m1 0h1m1 0h1m2 0h1m1 0h2m2 0h1m2 0h1m1 0h3m2 0h1m1 0h1m1 0h2m1 0h4m1 0h1m1 0h1m1 0h2m1 0h2m1 0h2m-151 1h1m1 0h10m2 0h1m2 0h1m1 0h1m4 0h1m1 0h2m1 0h7m1 0h1m2 0h1m1 0h1m2 0h1m2 0h3m2 0h1m2 0h1m2 0h5m2 0h3m2 0h3m1 0h5m1 0h1m1 0h1m2 0h6m2 0h2m1 0h1m2 0h1m4 0h3m1 0h1m2 0h1m2 0h5m1 0h1m3 0h1m1 0h1m3 0h1m1 0h2m4 0h2m2 0h6m-150 1h1m1 0h1m1 0h1m3 0h1m1 0h1m1 0h2m1 0h1m1 0h1m1 0h1m4 0h2m3 0h1m1 0h2m3 0h2m3 0h1m1 0h1m1 0h3m2 0h1m4 0h1m2 0h1m1 0h1m3 0h1m2 0h2m1 0h1m1 0h1m1 0h3m5 0h4m1 0h2m3 0h1m1 0h11m2 0h1m2 0h1m1 0h1m1 0h1m1 0h1m3 0h6m2 0h2m3 0h4m1 0h1m3 0h3m3 0h1m1 0h1m1 0h1m-153 1h2m2 0h1m1 0h1m1 0h2m1 0h1m1 0h1m1 0h1m4 0h3m3 0h1m4 0h2m1 0h1m1 0h3m1 0h1m2 0h2m1 0h1m1 0h2m2 0h1m2 0h3m2 0h1m1 0h1m1 0h1m1 0h3m1 0h1m1 0h4m6 0h4m1 0h2m1 0h1m1 0h6m7 0h2m1 0h2m1 0h1m2 0h1m1 0h1m1 0h1m1 0h1m5 0h2m1 0h4m6 0h3m1 0h2m1 0h1m1 0h1m1 0h2m-151 1h1m1 0h2m3 0h3m2 0h1m1 0h1m1 0h2m12 0h2m3 0h3m3 0h1m1 0h2m3 0h1m1 0h1m1 0h2m2 0h2m1 0h1m3 0h1m2 0h1m2 0h3m3 0h1m1 0h1m2 0h1m6 0h1m3 0h2m2 0h1m1 0h5m1 0h1m3 0h1m5 0h1m1 0h1m3 0h4m1 0h2m5 0h4m1 0h2m1 0h1m1 0h1m1 0h1m3 0h1m1 0h1m1 0h1m-152 1h1m1 0h7m2 0h1m1 0h1m1 0h2m1 0h1m3 0h3m1 0h1m1 0h1m2 0h5m2 0h1m3 0h3m1 0h1m1 0h2m1 0h2m1 0h2m2 0h6m1 0h1m3 0h1m3 0h2m2 0h1m1 0h1m1 0h1m1 0h1m1 0h1m1 0h7m1 0h1m1 0h1m6 0h2m1 0h4m1 0h1m2 0h5m4 0h1m3 0h2m1 0h2m1 0h2m3 0h2m2 0h6m1 0h1m-152 1h2m1 0h1m6 0h2m1 0h4m1 0h2m3 0h1m1 0h1m1 0h4m1 0h1m4 0h1m3 0h1m2 0h1m1 0h2m1 0h1m2 0h2m1 0h3m8 0h3m1 0h2m2 0h1m1 0h1m2 0h6m2 0h1m1 0h3m1 0h2m1 0h3m1 0h1m3 0h1m2 0h1m1 0h1m2 0h1m1 0h4m1 0h2m1 0h3m1 0h2m1 0h1m5 0h1m1 0h2m2 0h1m1 0h1m2 0h1m3 0h3m-152 1h1m3 0h4m1 0h1m1 0h1m1 0h3m3 0h1m2 0h1m2 0h2m1 0h2m2 0h2m3 0h3m1 0h1m2 0h1m2 0h5m2 0h1m4 0h1m3 0h4m2 0h1m2 0h3m1 0h3m1 0h1m2 0h4m2 0h1m1 0h1m2 0h2m2 0h1m1 0h3m1 0h2m1 0h1m2 0h1m2 0h1m2 0h1m2 0h1m6 0h3m1 0h2m3 0h1m1 0h5m5 0h1m-148 1h1m1 0h3m7 0h1m3 0h6m4 0h3m1 0h1m1 0h2m2 0h6m1 0h1m1 0h3m2 0h1m6 0h3m2 0h1m2 0h1m2 0h1m1 0h1m1 0h1m3 0h1m2 0h2m2 0h3m1 0h1m1 0h4m1 0h3m1 0h1m2 0h2m1 0h1m2 0h2m1 0h1m2 0h2m1 0h5m1 0h1m1 0h1m7 0h1m1 0h1m1 0h1m4 0h3m2 0h1m2 0h3m-152 1h1m4 0h2m1 0h1m3 0h1m1 0h1m3 0h1m2 0h3m6 0h3m1 0h1m3 0h2m1 0h1m2 0h1m2 0h3m1 0h4m1 0h5m1 0h1m1 0h2m2 0h1m1 0h5m3 0h3m2 0h2m1 0h2m1 0h1m2 0h1m1 0h2m2 0h1m1 0h1m2 0h1m1 0h1m1 0h1m1 0h2m1 0h1m1 0h1m6 0h1m1 0h1m1 0h1m1 0h5m1 0h3m1 0h3m3 0h1m3 0h2m-147 1h3m1 0h2m1 0h2m1 0h1m1 0h1m1 0h1m2 0h4m3 0h3m2 0h1m2 0h1m4 0h2m4 0h1m1 0h2m1 0h1m2 0h3m1 0h1m1 0h1m3 0h2m1 0h1m2 0h3m2 0h1m1 0h3m1 0h4m1 0h1m1 0h2m2 0h1m1 0h1m2 0h1m1 0h2m1 0h6m1 0h1m2 0h1m1 0h8m1 0h1m1 0h1m2 0h2m5 0h1m2 0h1m1 0h2m1 0h1m1 0h3m2 0h3m-153 1h1m1 0h1m3 0h1m3 0h1m7 0h2m9 0h2m1 0h1m1 0h1m1 0h2m1 0h1m1 0h1m2 0h1m1 0h2m2 0h2m2 0h3m2 0h1m3 0h1m4 0h1m2 0h3m2 0h2m4 0h1m2 0h5m3 0h1m7 0h2m2 0h1m2 0h2m1 0h1m2 0h1m3 0h1m5 0h1m2 0h1m1 0h1m1 0h2m3 0h1m2 0h1m1 0h1m4 0h1m3 0h1m-151 1h2m2 0h2m2 0h3m2 0h1m2 0h1m6 0h1m3 0h2m2 0h1m1 0h1m1 0h3m2 0h2m1 0h3m1 0h1m1 0h1m1 0h2m2 0h3m1 0h4m1 0h1m2 0h5m1 0h3m2 0h4m1 0h3m2 0h2m1 0h2m1 0h2m3 0h1m2 0h1m4 0h2m2 0h1m2 0h2m1 0h2m2 0h1m1 0h1m1 0h2m6 0h1m1 0h1m1 0h1m5 0h1m6 0h3m-152 1h2m1 0h5m1 0h2m4 0h1m1 0h1m1 0h1m4 0h1m1 0h1m2 0h3m1 0h3m1 0h2m4 0h1m1 0h1m1 0h1m2 0h1m1 0h1m5 0h1m2 0h2m1 0h2m1 0h4m2 0h3m1 0h2m5 0h1m1 0h4m1 0h4m2 0h2m1 0h1m1 0h1m1 0h2m1 0h4m1 0h1m4 0h1m3 0h3m2 0h5m2 0h3m1 0h2m2 0h1m5 0h2m1 0h1m-150 1h1m5 0h7m2 0h2m1 0h1m7 0h2m1 0h1m4 0h5m1 0h5m3 0h1m1 0h2m1 0h1m2 0h1m1 0h2m3 0h1m1 0h2m1 0h4m1 0h1m1 0h5m3 0h2m4 0h2m1 0h1m2 0h1m2 0h1m2 0h3m1 0h1m1 0h1m2 0h1m1 0h4m1 0h3m1 0h1m1 0h2m1 0h2m5 0h1m1 0h1m3 0h1m1 0h5m2 0h3m-148 1h3m1 0h3m2 0h1m1 0h3m3 0h1m1 0h4m1 0h1m3 0h5m1 0h1m1 0h8m1 0h1m3 0h1m1 0h3m1 0h1m1 0h1m3 0h1m2 0h1m1 0h1m1 0h5m2 0h1m1 0h2m1 0h1m1 0h1m1 0h1m1 0h1m1 0h3m1 0h1m1 0h1m1 0h2m5 0h1m1 0h2m2 0h1m2 0h1m2 0h1m1 0h1m1 0h1m2 0h1m1 0h1m1 0h2m3 0h1m1 0h4m3 0h1m4 0h1m-151 1h1m1 0h3m2 0h2m1 0h3m1 0h2m9 0h4m2 0h11m3 0h2m1 0h3m2 0h2m2 0h1m1 0h1m2 0h8m1 0h5m1 0h1m1 0h1m3 0h1m2 0h1m2 0h1m2 0h2m2 0h1m5 0h1m1 0h1m2 0h2m2 0h1m2 0h2m1 0h2m1 0h2m1 0h4m5 0h2m1 0h1m1 0h2m1 0h1m1 0h1m4 0h1m2 0h1m-151 1h3m1 0h1m1 0h2m6 0h1m2 0h3m2 0h2m1 0h3m5 0h2m1 0h1m1 0h6m1 0h2m1 0h1m2 0h2m2 0h1m1 0h4m1 0h1m1 0h2m1 0h2m2 0h1m1 0h2m3 0h1m3 0h1m2 0h1m1 0h2m2 0h1m1 0h1m2 0h1m1 0h4m1 0h1m1 0h6m2 0h1m4 0h1m3 0h2m3 0h2m1 0h1m1 0h1m1 0h1m4 0h1m1 0h1m3 0h1m2 0h2m1 0h1m-151 1h2m2 0h1m1 0h2m1 0h4m1 0h2m1 0h1m1 0h2m1 0h1m8 0h1m1 0h5m5 0h2m1 0h1m2 0h1m3 0h1m1 0h1m1 0h1m2 0h1m7 0h2m1 0h1m1 0h3m2 0h2m2 0h4m2 0h1m1 0h1m1 0h1m2 0h2m1 0h2m1 0h1m1 0h1m2 0h1m4 0h1m1 0h4m1 0h4m3 0h1m1 0h2m2 0h1m2 0h1m4 0h1m2 0h2m1 0h2m3 0h2m-152 1h1m2 0h1m1 0h1m2 0h3m1 0h4m1 0h1m4 0h3m2 0h1m2 0h1m2 0h5m2 0h6m1 0h7m1 0h2m1 0h1m1 0h5m1 0h2m4 0h1m1 0h1m1 0h3m1 0h1m1 0h2m2 0h1m1 0h1m1 0h1m2 0h5m2 0h3m2 0h1m1 0h2m1 0h1m2 0h1m3 0h1m3 0h1m1 0h1m1 0h2m1 0h1m1 0h1m4 0h1m1 0h2m1 0h2m4 0h4m-149 1h3m2 0h3m1 0h1m1 0h2m2 0h2m1 0h1m1 0h1m1 0h7m1 0h1m2 0h1m4 0h1m1 0h1m2 0h1m2 0h4m3 0h1m6 0h1m3 0h1m3 0h3m1 0h6m1 0h5m2 0h1m7 0h1m2 0h1m2 0h4m2 0h1m2 0h2m1 0h4m3 0h1m1 0h1m1 0h2m5 0h2m1 0h1m1 0h2m10 0h4m-149 1h3m1 0h3m1 0h1m1 0h1m1 0h2m1 0h4m6 0h6m1 0h3m2 0h3m2 0h3m1 0h2m1 0h3m1 0h1m8 0h1m1 0h2m4 0h1m1 0h1m2 0h1m1 0h2m1 0h1m3 0h1m2 0h1m1 0h2m1 0h4m1 0h1m4 0h1m2 0h2m2 0h1m8 0h1m1 0h1m2 0h1m1 0h2m3 0h2m4 0h3m1 0h1m2 0h2m-149 1h2m5 0h4m1 0h2m1 0h1m4 0h5m1 0h1m2 0h1m1 0h1m3 0h1m1 0h4m1 0h1m2 0h1m1 0h2m2 0h1m3 0h1m3 0h1m3 0h2m1 0h1m2 0h1m3 0h1m1 0h1m2 0h2m4 0h1m1 0h1m1 0h3m1 0h3m1 0h2m1 0h4m1 0h2m1 0h1m4 0h10m1 0h1m4 0h1m3 0h1m4 0h1m3 0h3m1 0h2m3 0h3m-151 1h1m1 0h1m1 0h1m4 0h2m3 0h1m6 0h3m1 0h5m2 0h2m1 0h4m4 0h2m2 0h2m2 0h1m2 0h4m2 0h3m1 0h1m1 0h9m4 0h2m1 0h2m6 0h1m1 0h3m4 0h1m1 0h1m2 0h1m1 0h1m2 0h1m8 0h1m1 0h1m1 0h1m1 0h2m1 0h1m1 0h1m4 0h1m1 0h5m1 0h2m1 0h1m1 0h1m-150 1h1m2 0h2m3 0h3m1 0h1m2 0h3m2 0h1m6 0h1m4 0h1m2 0h1m2 0h1m1 0h1m1 0h1m2 0h1m1 0h3m1 0h2m4 0h3m2 0h3m1 0h2m1 0h3m1 0h4m1 0h3m2 0h1m1 0h1m1 0h1m2 0h1m1 0h1m1 0h1m3 0h2m2 0h2m1 0h1m1 0h2m2 0h1m2 0h1m2 0h1m2 0h2m1 0h3m2 0h1m3 0h2m1 0h1m1 0h2m6 0h1m4 0h1m-151 1h2m1 0h1m2 0h2m1 0h3m1 0h3m1 0h1m3 0h9m3 0h2m2 0h2m1 0h3m1 0h1m2 0h1m1 0h1m4 0h4m5 0h5m1 0h2m1 0h2m4 0h1m5 0h2m1 0h3m1 0h2m1 0h2m3 0h1m1 0h1m4 0h1m1 0h4m1 0h1m5 0h1m2 0h1m1 0h1m1 0h1m2 0h2m1 0h1m1 0h3m3 0h3m1 0h1m3 0h2m-150 1h1m1 0h2m1 0h1m3 0h1m2 0h1m2 0h1m2 0h1m2 0h1m1 0h3m1 0h2m1 0h2m1 0h1m1 0h1m1 0h1m1 0h2m2 0h1m3 0h1m2 0h2m1 0h1m1 0h2m3 0h1m3 0h4m1 0h1m1 0h4m5 0h1m4 0h3m1 0h1m2 0h2m1 0h1m1 0h2m1 0h1m1 0h1m1 0h1m4 0h1m2 0h9m2 0h2m1 0h5m4 0h4m1 0h1m1 0h2m1 0h3m2 0h3m-152 1h1m4 0h1m3 0h4m1 0h1m1 0h1m2 0h2m2 0h1m1 0h1m3 0h2m2 0h4m1 0h2m1 0h2m2 0h5m3 0h3m1 0h3m1 0h1m1 0h5m3 0h1m3 0h1m2 0h2m6 0h4m1 0h8m1 0h1m1 0h1m1 0h1m1 0h2m2 0h1m6 0h1m3 0h1m4 0h1m1 0h4m5 0h2m1 0h1m2 0h1m2 0h1m-148 1h3m1 0h1m7 0h2m1 0h5m1 0h1m3 0h1m2 0h3m2 0h1m1 0h1m3 0h1m1 0h3m1 0h3m1 0h1m2 0h5m3 0h1m4 0h4m2 0h3m1 0h1m1 0h2m1 0h4m1 0h1m2 0h2m1 0h3m4 0h2m2 0h1m2 0h1m1 0h2m4 0h2m2 0h2m1 0h2m1 0h1m1 0h1m4 0h1m1 0h2m1 0h1m1 0h1m2 0h1m1 0h1m1 0h2m1 0h5m-151 1h1m1 0h1m1 0h2m6 0h1m1 0h1m1 0h1m1 0h1m1 0h2m1 0h2m2 0h1m1 0h8m4 0h1m1 0h1m1 0h3m1 0h3m7 0h8m2 0h4m1 0h1m1 0h1m1 0h1m1 0h1m3 0h2m1 0h7m1 0h2m1 0h1m1 0h1m4 0h6m4 0h7m1 0h1m1 0h4m2 0h1m1 0h2m2 0h2m1 0h1m2 0h5m-141 1h1m1 0h1m1 0h1m1 0h1m3 0h5m2 0h2m2 0h4m3 0h1m1 0h2m1 0h1m1 0h3m1 0h2m3 0h1m2 0h2m1 0h3m3 0h4m5 0h2m1 0h1m1 0h1m3 0h1m3 0h1m1 0h1m3 0h3m1 0h1m3 0h1m2 0h3m3 0h1m2 0h3m1 0h1m3 0h1m2 0h1m1 0h1m2 0h3m5 0h1m1 0h1m1 0h2m1 0h2m3 0h5m-153 1h7m4 0h1m1 0h1m1 0h1m1 0h2m2 0h1m1 0h1m3 0h1m2 0h3m1 0h1m1 0h2m4 0h1m2 0h1m1 0h2m2 0h2m4 0h1m1 0h2m1 0h1m1 0h8m1 0h1m1 0h8m1 0h1m2 0h2m1 0h1m1 0h1m2 0h1m2 0h2m1 0h2m4 0h5m4 0h1m1 0h1m1 0h1m1 0h1m1 0h1m1 0h2m1 0h1m1 0h2m1 0h1m4 0h1m1 0h1m1 0h2m1 0h1m1 0h2m-150 1h1m5 0h1m2 0h2m4 0h1m1 0h1m1 0h8m2 0h2m1 0h1m3 0h2m1 0h1m2 0h3m3 0h2m1 0h1m2 0h1m1 0h1m2 0h2m3 0h1m1 0h1m1 0h2m1 0h2m2 0h1m1 0h5m1 0h1m3 0h2m3 0h1m3 0h1m1 0h1m3 0h2m3 0h2m5 0h3m3 0h2m1 0h3m6 0h2m1 0h1m1 0h2m5 0h1m3 0h5m-153 1h1m1 0h3m1 0h1m1 0h4m1 0h2m4 0h1m2 0h16m1 0h1m1 0h1m3 0h1m1 0h2m1 0h1m3 0h2m1 0h2m1 0h5m2 0h2m10 0h2m1 0h1m1 0h1m1 0h9m6 0h1m3 0h2m1 0h3m2 0h1m1 0h6m1 0h3m1 0h1m1 0h3m1 0h1m1 0h1m4 0h1m1 0h2m1 0h5m-149 1h1m1 0h3m1 0h1m1 0h2m1 0h2m1 0h1m2 0h1m1 0h1m6 0h1m1 0h2m2 0h2m1 0h1m1 0h2m2 0h1m2 0h1m1 0h1m2 0h2m2 0h4m3 0h2m2 0h2m6 0h1m1 0h1m2 0h1m1 0h1m1 0h3m2 0h1m5 0h4m1 0h2m1 0h1m2 0h2m2 0h1m1 0h1m2 0h3m1 0h1m4 0h4m3 0h3m4 0h4m1 0h3m5 0h3m-151 1h1m1 0h3m1 0h1m1 0h1m2 0h4m6 0h3m5 0h1m1 0h1m1 0h1m1 0h3m1 0h6m2 0h1m1 0h2m3 0h1m1 0h1m1 0h2m2 0h2m1 0h1m2 0h2m2 0h1m1 0h1m2 0h2m1 0h2m2 0h2m1 0h1m1 0h1m4 0h1m4 0h1m2 0h1m3 0h1m1 0h4m5 0h4m1 0h1m3 0h2m1 0h4m6 0h1m1 0h1m1 0h5m1 0h2m-151 1h1m5 0h1m2 0h1m2 0h1m1 0h2m1 0h6m3 0h3m1 0h2m1 0h2m1 0h1m1 0h2m4 0h1m4 0h3m1 0h1m2 0h1m3 0h3m2 0h1m1 0h2m1 0h1m1 0h1m1 0h3m1 0h1m1 0h5m4 0h2m1 0h3m3 0h5m1 0h2m5 0h1m1 0h2m1 0h2m2 0h7m1 0h1m3 0h2m1 0h3m4 0h2m5 0h2m-151 1h7m7 0h1m1 0h1m1 0h2m2 0h7m2 0h2m1 0h1m4 0h1m12 0h1m2 0h1m1 0h1m3 0h1m1 0h1m2 0h3m2 0h2m1 0h2m6 0h1m1 0h1m5 0h1m1 0h1m1 0h1m1 0h1m2 0h1m3 0h1m2 0h6m3 0h1m1 0h4m6 0h1m1 0h2m1 0h1m1 0h1m3 0h4m2 0h2m5 0h1"/></svg>
